/* XPM */
static char *_d67b9598a4441f0ae738858b139e0eebaS7dw4Ca7g2U8AL[] = {
/* columns rows colors chars-per-pixel */
"20 20 160 2 ",
"   c #010101",
".  c gray1",
"X  c #040100",
"o  c #040404",
"O  c #0A0601",
"+  c #0C0701",
"@  c #0D0801",
"#  c #090909",
"$  c #0C0C0C",
"%  c #100901",
"&  c #150C01",
"*  c #160F02",
"=  c #121105",
"-  c #1A1203",
";  c #1F1603",
":  c #1F190E",
">  c #161616",
",  c #1B1B11",
"<  c #191919",
"1  c #1D1D1D",
"2  c gray12",
"3  c #241701",
"4  c #271B04",
"5  c #271B06",
"6  c #2A1B02",
"7  c #2B1C02",
"8  c #2C1C02",
"9  c #261C0B",
"0  c #281D0B",
"q  c #2F2206",
"w  c #29200F",
"e  c #2B200E",
"r  c #2F230F",
"t  c #372103",
"y  c #322305",
"u  c #352506",
"i  c #392706",
"p  c #3A270C",
"a  c #3A2B0E",
"s  c #3D290C",
"d  c #3E3D16",
"f  c #202020",
"g  c gray13",
"h  c #232323",
"j  c gray14",
"k  c gray15",
"l  c #2D2921",
"z  c #282828",
"x  c gray17",
"c  c #2C2C2C",
"v  c #2F2F2F",
"b  c gray19",
"n  c #3d5c69",
"m  c #402E07",
"M  c #492F04",
"N  c #402F08",
"B  c #412C0A",
"V  c #462F0A",
"C  c #432D0C",
"Z  c #523304",
"A  c #573705",
"S  c #583703",
"D  c #5D3B03",
"F  c #523A09",
"G  c #623E04",
"H  c #5C4310",
"J  c #6E4605",
"K  c #664208",
"L  c #60460C",
"P  c #68490A",
"I  c #68480C",
"U  c #734905",
"Y  c #754A05",
"T  c #7A4E04",
"R  c #7D5004",
"E  c #75520E",
"W  c #674A12",
"Q  c #6D5015",
"!  c #705013",
"~  c #71722E",
"^  c #835305",
"/  c #835306",
"(  c #845405",
")  c #8A5505",
"_  c #8A5806",
"`  c #8C5906",
"'  c #8D5A07",
"]  c #8F5B06",
"[  c #8F5B07",
"{  c #8E650D",
"}  c #9D6609",
"|  c #8E6811",
" . c #996B10",
".. c #996C10",
"X. c #A46705",
"o. c #A76906",
"O. c #A86B06",
"+. c #AC6E07",
"@. c #A96C08",
"#. c #AC6E08",
"$. c #AD7107",
"%. c #A4730F",
"&. c #B97606",
"*. c #B07309",
"=. c #B17408",
"-. c #B67708",
";. c #A26F10",
":. c #A47110",
">. c #A57716",
",. c #A97611",
"<. c #AF7D12",
"1. c #AE7C14",
"2. c #B57C11",
"3. c #AF8313",
"4. c #B58014",
"5. c #B78617",
"6. c #BD8213",
"7. c #BD8613",
"8. c #BA8014",
"9. c #B88216",
"0. c #BB8516",
"q. c #BF8B18",
"w. c #BF8C18",
"e. c #8A8E30",
"r. c #B19C2C",
"t. c #A0A13B",
"y. c #C4870B",
"u. c #C98D0C",
"i. c #C88C0D",
"p. c #CB8E0C",
"a. c #DC9709",
"s. c #C38D14",
"d. c #CF9218",
"f. c #DE9914",
"g. c #D4971B",
"h. c #D69818",
"j. c #D8991B",
"k. c #D99B1B",
"l. c #DC9C19",
"z. c #DE9D1A",
"x. c #E79D06",
"c. c #E89C03",
"v. c #E89E07",
"b. c #E39C18",
"n. c #ECA208",
"m. c #E4A11A",
"M. c #F3A917",
"N. c #F5AB17",
"B. c #F7AD17",
"V. c #F9B01A",
"C. c #FFB61F",
"Z. c #FFB81F",
"A. c #C0B139",
"S. c #D3BA34",
"D. c #FFB720",
"F. c #FFB920",
"G. c #E8C534",
"H. c #C0BF40",
"J. c #F3E349",
"K. c #F7F555",
/* pixels */
"n < r ^ ^ ^ | H.~ < n n n n n n n n n n ",
"k p A =.=.-.s.J.r.H k k k k k k z n n n ",
"  ^ $.u.u.a.v.v.M.z.  O @ @ @ = , b n n ",
"z 0 M *.=.f.V.V.%.u O U ` ` ) A.t.# n n ",
"h s Z R R :.0.0.P & M } =.=.&.G.S.I l c ",
"  ^ (     X X X   t #.y.u.u.c.v.n.D.5 2 ",
"n $ 7 #.+.b.Z.Z.{   @ _ O.X.Z.Z.w.  n n ",
"$ K J 7 7 i m m <.1.  3 7 7 N m L w.0 h ",
"$ K J 6 6 6 q d 3.1.  3 8 6 m N L w.w z ",
"n $ 6 @.O.O.5.K.e.  @ ` +.o.F.D.q.  c n ",
"  ^ *.i.u.a.c.x.N.m.  % % & ; ; F D.5 2 ",
"f C K -.-.f.B.B.2.P O G T Y 4.4.>.E l x ",
"z 0 i [ ` 6.k.k. .y O Y ` ` k.k.>.# b n ",
"  R / & @ - - - 7.z.  O % % - - : v n n ",
"f V D ) ) 2.d.g.,.! h 2 h 2 h h k n n n ",
"j N A [ ` 2.h.h.,.W k c n n n n n n n n ",
"X T / & @ - * * 9.b.o z n n n n n n n n ",
"z 0 i [ [ 2.g.g. .a z b n n n n n n n n ",
"n < e T T ;.2.9.Q > n n n n n n n n n n ",
"n n z       . . 2 n n n n n n n n n n n "
};
