/* XPM */
static char *_b3f1b13840c4a90a03ac34e4999d4c5WCbNzwPF0fMPeDgV[] = {
/* columns rows colors chars-per-pixel */
"20 20 145 2 ",
"   c #4E4C4B",
".  c #4C4E4B",
"X  c #4B4F4F",
"o  c #3d5c69",
"O  c #4C4E4D",
"+  c #4D4D4F",
"@  c #4E4E4E",
"#  c #504C4D",
"$  c #595856",
"%  c #5D5856",
"&  c #615F5F",
"*  c #676767",
"=  c #6C6A61",
"-  c #6E6D69",
";  c #6C6C6C",
":  c #706E62",
">  c #716E6A",
",  c #757069",
"<  c gray44",
"1  c #777777",
"2  c #7F7C79",
"3  c #AD6E0C",
"4  c #AB730B",
"5  c #B97303",
"6  c #B57C15",
"7  c #BC7F1E",
"8  c #C77E01",
"9  c #C07E23",
"0  c #CC8406",
"q  c #D58C03",
"w  c #D88903",
"e  c #DF8D03",
"r  c #DA8806",
"t  c #DB8F08",
"y  c #DC9208",
"u  c #CD8D1C",
"i  c #E38F04",
"p  c #E38D09",
"a  c #E29003",
"s  c #E59007",
"d  c #E99F02",
"f  c #E3900B",
"g  c #EB9F0A",
"h  c #E09011",
"j  c #D1A30B",
"k  c #D2A60A",
"l  c #D3A50C",
"z  c #D5A40C",
"x  c #E6A405",
"c  c #EFA105",
"v  c #E1AE03",
"b  c #EAAF03",
"n  c #F1A006",
"m  c #F0A106",
"M  c #F0A206",
"N  c #EAB101",
"B  c #ECB103",
"V  c #FAB505",
"C  c #F9BA03",
"Z  c #FABF02",
"A  c #FFBC05",
"S  c #FCBF05",
"D  c #F8B708",
"F  c #FEBF0C",
"G  c #CB8E2B",
"H  c #CC9838",
"J  c #E6A83E",
"K  c #E7AA3E",
"L  c #E9A838",
"P  c #EDA83A",
"I  c #EAA93D",
"U  c #ECA93F",
"Y  c #FDC200",
"T  c #FEC003",
"R  c #FFC006",
"E  c #FEC009",
"W  c #FCC111",
"Q  c #FFCD35",
"!  c #FECF36",
"~  c #FFCB39",
"^  c #FCD034",
"/  c #CA9A44",
"(  c #C39849",
")  c #EDA740",
"_  c #E9A941",
"`  c #EDB959",
"'  c #DABA70",
"]  c #E7BE75",
"[  c #FFCC41",
"{  c #FED242",
"}  c #F0C073",
"|  c #8C8B8B",
" . c #99978C",
".. c #939393",
"X. c #ABA59A",
"o. c #9FA1A0",
"O. c #A2A2A2",
"+. c #A6A5A4",
"@. c #A8AAA5",
"#. c #AAAAA9",
"$. c #ACABAB",
"%. c gray68",
"&. c #B9B2A8",
"*. c #B4B4B3",
"=. c #B8B6B6",
"-. c #BEBCB2",
";. c #B7B8B8",
":. c #EAC989",
">. c #E6CE92",
",. c #C6C4B4",
"<. c #EAE4B3",
"1. c #CBCBCB",
"2. c #CDCDCD",
"3. c #D4D1C1",
"4. c #D2D1C7",
"5. c LightGray",
"6. c gray83",
"7. c #F0EBCB",
"8. c #F2EACC",
"9. c #F3EBCF",
"0. c #EFECD3",
"q. c #E5E9DF",
"w. c #EEEEDC",
"e. c #F1EBD5",
"r. c #F6EFD4",
"t. c #F2EDD9",
"y. c #F6F0D5",
"u. c #F6F2DB",
"i. c #F9F3D9",
"p. c #F8F3DD",
"a. c #FDF6DC",
"s. c #FFF8DB",
"d. c #FFF9DE",
"f. c gray89",
"g. c #E6E7E2",
"h. c #E4E4E4",
"j. c #E7E7E6",
"k. c #E8E7E2",
"l. c #ECEBE6",
"z. c #EAEDE4",
"x. c gray91",
"c. c #EDEBEB",
"v. c #FEFAE2",
"b. c #FFFBE4",
"n. c #FFFBE6",
/* pixels */
"o o o o o - o $ 2 & o o o o o o o o o o ",
"o o o o , 3.,  .b.X.> > o   o o o o o o ",
"o o o = v.v.v.b.b.v.v.b.: o o o o o o o ",
"o o ,.i.d.d.v.v.v.v.r.p.u.4.o o o o o o ",
"o # 0.a.d.d.v.v.v.d.] ] ] ` # o o o o o ",
"  -.0.y.s.d.d.v.b.>.u L P h | o o o o o ",
"o w.e.9 9.d.d.d./ 0 y _ P h =.6.h.h.; O ",
"o o t.7 9.r.v.<.8 w p P U h =.2.6.x.; o ",
"o o $ 3 6 7.r.s.H r s P U h +.$ 1 x.; o ",
"o o o 4 5 ( 7.:.0 r i P K f   o < x.; o ",
"o o   j i G ' 0 D c M ~ _ c   o < x.; o ",
"o o   j e q q y T M C ! K R   o < x.; o ",
"o o o z a R V d S n C ! ) S + + < x.; o ",
"o o o l a T V x R g C ! ) F ..+ < x.; o ",
"o o o j i A V d T M C ~ _ E *.O.%.f.; o ",
"o O X z x B S Y A S Z ! [ E ;.1.1.2.* o ",
"o o o @.z v B R T T T ^ { q.o.o o o o o ",
"o o o $.&.B B T T R Y ^ z.j.o o o o o o ",
"o o O #.*.=.-.5.j.g.k.z.c.j.o o o o o o ",
"o o o o . + . X o X + o + X o o o o o o "
};
