/* XPM */
static char *_fd7a70e810c46f0b22d58c41791c3c8RUpGShw70FF37gDh[] = {
/* columns rows colors chars-per-pixel */
"20 20 74 1 ",
"  c black",
". c #060303",
"X c #070403",
"o c #070404",
"O c #0A0605",
"+ c #0D0706",
"@ c #0C0806",
"# c #0C0C0C",
"$ c #0E0E0E",
"% c #100B07",
"& c #130B0B",
"* c #120C0B",
"= c #1A0E0D",
"- c #171109",
"; c #1A100E",
": c #1C100E",
"> c #101010",
", c #131313",
"< c #151515",
"1 c #1D1110",
"2 c #1A1919",
"3 c gray12",
"4 c #221311",
"5 c #231411",
"6 c #251412",
"7 c #2C1715",
"8 c #241B11",
"9 c #251C12",
"0 c #2B1915",
"q c #2D1915",
"w c #2E1916",
"e c #2F1B17",
"r c #281B19",
"t c #311B18",
"y c #341C19",
"u c #361D19",
"i c #2F2117",
"p c #302117",
"a c #302417",
"s c #312517",
"d c #302617",
"f c #312018",
"g c #342418",
"h c #3C211C",
"j c #3E211D",
"k c #3C2D1B",
"l c #3F2A1C",
"z c #212020",
"x c #232222",
"c c #252525",
"v c #2D2727",
"b c #2D2D2D",
"n c #323232",
"m c #373636",
"M c #383737",
"N c gray23",
"B c #3E3B3B",
"V c #3F3E3E",
"C c #41241E",
"Z c #442B1E",
"A c #482E20",
"S c #5B4626",
"D c #444343",
"F c #4A4949",
"G c #4F4E4E",
"H c #535151",
"J c #545252",
"K c #595757",
"L c #5E5B5B",
"P c #686464",
"I c #696565",
"U c #726D6C",
"Y c #767271",
"T c #7B7675",
/* pixels */
"TTInTTTTTTTTTDDTTTTT",
"LLHnLLLLLLLLLVBLLLLL",
"KKGnzzzzzzzzz<zKKKKK",
"FFV3 $,,,,,,,.$NFFFF",
"NnzO cnnnnnnn# obMNN",
"Yz*u cnnnnnnn$@uXKYY",
"br7j cnnnnnnn$@u6vVP",
" wCA cnnnnnnn&&Aj@<K",
" wZS cnnnnnnn#-Sj@<J",
" 9kS cnnnnnnn$-Sa@>M",
" 9il cnnnnnnn#@Za@<P",
" 9uu cnnnnnnn#@uf@2U",
" 6uj cnnnnnnn#@je+<K",
" whj cnnnnnnn#@jj@<K",
" whd cnnnnnnn$@gj@>V",
" wgi cnnnnnnn$+ah@#n",
" 9iw cnnnnnnn$Owa@#n",
" 501 cnnnnnnn$o=e@#n",
" =:O3bnnnnnnnr2#4O#n",
" && nnnnnnnnnnc ;.$n"
};
