/* XPM */
static char *door1623070652[] = {
/* columns rows colors chars-per-pixel */
"20 20 148 2 ",
"   c #050302",
".  c #060303",
"X  c #090404",
"o  c #0A0704",
"O  c #0C0706",
"+  c #0A0804",
"@  c #0C0C0C",
"#  c gray6",
"$  c #110807",
"%  c #140B09",
"&  c #160C0B",
"*  c #190C0A",
"=  c #1C0D0A",
"-  c #1A0F0C",
";  c #1C0E0D",
":  c #141110",
">  c #141313",
",  c #161616",
"<  c #1F1211",
"1  c #1E1C1C",
"2  c #1F1E1E",
"3  c #251211",
"4  c #271614",
"5  c #281412",
"6  c #291715",
"7  c #251B11",
"8  c #281F12",
"9  c #2D1917",
"0  c #2E1916",
"q  c #211D1C",
"w  c #201E1E",
"e  c #2E1A18",
"r  c #291C1B",
"t  c #301917",
"y  c #311C19",
"u  c #341D1B",
"i  c #351E1A",
"p  c #371E1B",
"a  c #371F1C",
"s  c #3A1F1B",
"d  c #3B201C",
"f  c #242323",
"g  c #272626",
"h  c gray16",
"j  c #2E2929",
"k  c #2D2C2C",
"l  c #302A2A",
"z  c #362D2C",
"x  c #3E312F",
"c  c gray19",
"v  c #303131",
"b  c #373737",
"n  c #3B3A3A",
"m  c #3B3B3A",
"M  c #3C3B3B",
"N  c #3C3C3C",
"B  c #3D3C3C",
"V  c #41211D",
"C  c #40221E",
"Z  c #432320",
"A  c #462420",
"S  c #462622",
"D  c #482722",
"F  c #492723",
"G  c #4C2824",
"H  c #4C2924",
"J  c #502925",
"K  c #512B26",
"L  c #542C26",
"P  c #562D27",
"I  c #592E29",
"U  c #453220",
"Y  c #453620",
"T  c #4C3824",
"R  c #4F3A24",
"E  c #4E3E25",
"W  c #503A26",
"Q  c #533C26",
"!  c #553D27",
"~  c #5D302A",
"^  c #5E302B",
"/  c #583F28",
"(  c #423330",
")  c #62332C",
"_  c #66352E",
"`  c #69372F",
"'  c #6A372F",
"]  c #6A3530",
"[  c #6D3831",
"{  c #703832",
"}  c #753B34",
"|  c #763C34",
" . c #7A3D36",
".. c #7B3E36",
"X. c #7F3F38",
"o. c #524127",
"O. c #534227",
"+. c #66492E",
"@. c #684B2F",
"#. c #66512D",
"$. c #7E4037",
"%. c #414141",
"&. c #434242",
"*. c #444343",
"=. c #454444",
"-. c #484747",
";. c #4A4848",
":. c #4B4A4A",
">. c #4C4C4C",
",. c #4D4C4C",
"<. c #514E4D",
"1. c #515050",
"2. c #555352",
"3. c #555454",
"4. c #565454",
"5. c #595757",
"6. c #5A5758",
"7. c #5B5959",
"8. c #5C595A",
"9. c #5F5D5C",
"0. c #5F5C5D",
"q. c #605E5E",
"w. c #615E5E",
"e. c #625F5F",
"r. c #636161",
"t. c #656363",
"y. c #686564",
"u. c #6A6767",
"i. c #6C6969",
"p. c #6D6A6A",
"a. c #716C6C",
"s. c #726E6D",
"d. c #777372",
"f. c #7A7575",
"g. c #7E7978",
"h. c #7E7979",
"j. c #805C38",
"k. c #855F3A",
"l. c #8A643C",
"z. c #88693B",
"x. c #896B3C",
"c. c #91673E",
"v. c #967340",
"b. c #977541",
"n. c #827D7C",
"m. c #878382",
"M. c #888383",
"N. c #8A8685",
/* pixels */
"M.h.h.9.*.h.h.h.h.h.h.h.h.h.u.&.n.g.g.g.",
"p.w.w.,.B w.w.w.w.w.w.w.w.w.2.n e.w.w.w.",
"t.5.5.-.b &.&.*.&.*.&.&.&.&.B n 5.5.5.5.",
"r.4.4.=.g + $ $ $ = * $ O o : b 2.2.3.7.",
":.B b w % s G K ) X.| P K C t : z m m 1.",
"n.d.<.< s G K ^ [ X. ._ G G C 0 1 a.d.p.",
"u.k r C G G _ ] { X...' _ L K D t w 7.0.",
"t., 7 T T W ! ! @.c.k.O.! W W T x o 3.7.",
"7.> 8 O.E E O.E #.b.x.O.O.O.E E Y + ,.>.",
"%.@ 8 o.E E E O.#.c.z.O.E E E E Y + v N ",
"m.1 & 0 0 0 t t D _ ^ u 0 0 9 9 5   f.d.",
"i., * u u u d V ~ $.[ G u u u u r   w.w.",
"t., 3 F C K G I ' [ ' ) D F F H C X 4.1.",
":.# 8 E W W W Q +.l.j.O.T T W W U + B ( ",
",.> 8 T T ! ! ! @.c.l.! ! ! ! R Y O B ;.",
"N.w 3 K P ' ' ' { .. .' ' ' ) G V + h.y.",
"t., ; u d u F H ^ $.| G G d d u 9   3.5.",
"t., * y e u d u S [ ) d u u 9 u 9   3.<.",
",.h g l l l j j z ( x l j l l l j f B *.",
"j l l l l l l j l l l l j l l l j j l B "
};
