/* XPM */
static char *b107260932e34461e750cb60fbcb68979ZBdqZYbTzivj5pq[] = {
/* columns rows colors chars-per-pixel */
"20 20 136 2 ",
"   c black",
".  c gray1",
"X  c #050000",
"o  c #060606",
"O  c #070707",
"+  c #0B0001",
"@  c gray4",
"#  c #0C0B0C",
"$  c gray5",
"%  c #110001",
"&  c #150001",
"*  c #140607",
"=  c #1A0102",
"-  c #1E0003",
";  c #1D0501",
":  c #1F0106",
">  c #190901",
",  c #1E0D01",
"<  c #100608",
"1  c #100D0B",
"2  c #10100F",
"3  c #101010",
"4  c #191618",
"5  c #230002",
"6  c #240002",
"7  c #240003",
"8  c #200601",
"9  c #250505",
"0  c #280004",
"q  c #2E0407",
"w  c #320203",
"e  c #340003",
"r  c #350203",
"t  c #320204",
"y  c #310107",
"u  c #360104",
"i  c #390306",
"p  c #251701",
"a  c #392911",
"s  c #3A1E22",
"d  c #382124",
"f  c gray20",
"g  c #420005",
"h  c #450104",
"j  c #450105",
"k  c #470004",
"l  c #4A0104",
"z  c #490206",
"x  c #4F0206",
"c  c #410E05",
"v  c #480608",
"b  c #530106",
"n  c #510307",
"m  c #570004",
"M  c #570005",
"N  c #580003",
"B  c #590106",
"V  c #5F0106",
"C  c #560009",
"Z  c #561304",
"A  c #600102",
"S  c #600105",
"D  c #660005",
"F  c #650207",
"G  c #690105",
"H  c #6E0007",
"J  c #740107",
"K  c #7A0403",
"L  c #7D0207",
"P  c #7F0509",
"I  c #671303",
"U  c #6C1702",
"Y  c #6B1704",
"T  c #7A1A05",
"R  c #542604",
"E  c #5D3007",
"W  c #7E2D05",
"Q  c #7E2E04",
"!  c #7F2E04",
"~  c #763703",
"^  c #48292C",
"/  c #523D3E",
"(  c #704503",
")  c #675F51",
"_  c #6B5D5D",
"`  c #656565",
"'  c #860107",
"]  c #850206",
"[  c #850209",
"{  c #870208",
"}  c #800508",
"|  c #880109",
" . c #900E07",
".. c #821803",
"X. c #99190A",
"o. c #843104",
"O. c #873705",
"+. c #913703",
"@. c #9B3706",
"#. c #993D07",
"$. c #A53305",
"%. c #884904",
"&. c #934503",
"*. c #945C03",
"=. c #A44306",
"-. c #A64504",
";. c #A95004",
":. c #A75B02",
">. c #A45C05",
",. c #B95203",
"<. c #9B691D",
"1. c #BA7103",
"2. c #BC7203",
"3. c #BD7606",
"4. c #B97807",
"5. c #976A20",
"6. c #C45105",
"7. c #C95904",
"8. c #CE5E06",
"9. c #CD6003",
"0. c #C76F01",
"q. c #D86907",
"w. c #D26308",
"e. c #CE750A",
"r. c #E77B07",
"t. c #E77A09",
"y. c #817A7B",
"u. c #D68201",
"i. c #EC8106",
"p. c #F08805",
"a. c gray60",
"s. c #CBCBCB",
"d. c gray80",
"f. c #DFDFDF",
"g. c #F4F4F4",
"h. c #3d5c69",
/* pixels */
"h.h.h.h.h.h.h.h.h.h.h.h.h.h.h.h.h.h.h.h.",
"h.h.h.h.h.` ^ e g O.W o.W ( ) h.h.h.h.h.",
"h.h.h.h.f C M M W Y M V 1.N >.f h.h.h.h.",
"h.h.h.h.j M M B ;.@.=.&.-.#.o.*.h.h.h.h.",
"h.h.h.s b M H L 9.' i.p.[ 6.$.e.s h.h.h.",
"h.h.h.5 l 0 G A 7.q.' ' t.8.X.w.u h.h.h.",
"h.h.h._ y C D [ T c i i u R E ' r h.h.h.",
"h.h.h.: M V [ | < 3 3 3 3 3 2 9 u h.h.h.",
"h.h.h.6 - V { & 2 a 3 3 3 3 a 1 v 4 h.h.",
"h.h.h.5 % V {   3 3.3 3 3 3 4.1 l X h.h.",
"h.h.h.d 5 M J   3 <.3 3 3 3 5.$ y   h.h.",
"h.h.h.h.= M J   $ 1 3 3 3 3 3 O q   h.h.",
"h.h.h.h.f % b } b X           P e h.h.h.",
"h.h.h.h.k x 5 5 u n t y u e l - h.h.h.h.",
"h.h.h.h.k B M M x j %.g g ~ j j h.h.h.h.",
"h.h.h.h.j N +.U m :.L 5 M o.U Z h.h.h.h.",
"h.h.h./ b S ' 2.N 0.J * 5 W ..1.h.h.h.h.",
"h.` h.6 M ' ' B u.X.H @   ] r.K 5   h.h.",
"h.` 6 M D  .,.&.L [ j $ o F { ,.I   h.h.",
"h.h.% % = 8 , % = = . 2 3 + - ; > h.h.h."
};
