/* XPM */
static char *eecbb1ae066c46f2a287d534aebd2945WxKyij62gkZXP8Ss[] = {
/* columns rows colors chars-per-pixel */
"20 20 160 2 ",
"   c #080809",
".  c #160B0B",
"X  c #0C0B11",
"o  c #0A1E1E",
"O  c #191612",
"+  c #290606",
"@  c #2A0805",
"#  c #2E0708",
"$  c #390707",
"%  c #310808",
"&  c #3A110D",
"*  c #261A17",
"=  c #2A1B1A",
"-  c #371918",
";  c #3E1E1B",
":  c #28281C",
">  c #34271E",
",  c #0A2B2A",
"<  c #122723",
"1  c #16312F",
"2  c #073331",
"3  c #083534",
"4  c #093638",
"5  c #1B3937",
"6  c #16343B",
"7  c #292E23",
"8  c #302727",
"9  c #36372B",
"0  c #3A3735",
"q  c #50201C",
"w  c #442329",
"e  c #4F272A",
"r  c #432829",
"t  c #4B2B2A",
"y  c #5A2327",
"u  c #572A2D",
"i  c #433428",
"p  c #54322F",
"a  c #452F33",
"s  c #582C34",
"d  c #563836",
"f  c #692629",
"g  c #66312D",
"h  c #74322E",
"j  c #6E2630",
"k  c #673438",
"l  c #6B3439",
"z  c #653938",
"x  c #783537",
"c  c #7F323B",
"v  c #0D4238",
"b  c #16413B",
"n  c #5C4532",
"m  c #644D3C",
"M  c #063D41",
"N  c #0B3B45",
"B  c #064243",
"V  c #0A4441",
"C  c #0F464F",
"Z  c #15464B",
"A  c #144C4F",
"S  c #08524E",
"D  c #0E4551",
"F  c #175555",
"G  c #244545",
"H  c #394B4D",
"J  c #0A5A62",
"K  c #105A63",
"L  c #056B64",
"P  c #04606A",
"I  c #0F666C",
"U  c #0E6D6F",
"Y  c #126864",
"T  c #1E666C",
"R  c #12696C",
"E  c #087673",
"W  c #07707A",
"Q  c #25736A",
"!  c #247774",
"~  c #257878",
"^  c #2B7C7A",
"/  c #494846",
"(  c #564844",
")  c #554748",
"_  c #4F5456",
"`  c #535353",
"'  c #76594B",
"]  c #675354",
"[  c #4B5F65",
"{  c #6E6C68",
"}  c #746D6C",
"|  c #6E7A75",
" . c #757577",
".. c #7A7D7D",
"X. c #86363E",
"o. c #8B353B",
"O. c #933337",
"+. c #953639",
"@. c #9E3D42",
"#. c #973B48",
"$. c #A73D45",
"%. c #A03E49",
"&. c #9C404E",
"*. c #A24245",
"=. c #A2414B",
"-. c #B4444C",
";. c #AF4151",
":. c #8F6157",
">. c #89635A",
",. c #876B60",
"<. c #80716C",
"1. c #97796A",
"2. c #977A78",
"3. c #9A917E",
"4. c #BB8575",
"5. c #0C7C85",
"6. c #117F87",
"7. c #098388",
"8. c #118387",
"9. c #128089",
"0. c #078997",
"q. c #098A95",
"w. c #108392",
"e. c #77878A",
"r. c #78928A",
"t. c #9D9280",
"y. c #979B9D",
"u. c #9C9B9B",
"i. c #B4AB8E",
"p. c #B9AB8E",
"a. c #B6AC96",
"s. c #9EA2A1",
"d. c #A7ACAB",
"f. c #AEAEAF",
"g. c #B4B2B1",
"h. c #BCBBBA",
"j. c #C49A82",
"k. c #C4A684",
"l. c #DFB692",
"z. c #DEB897",
"x. c #DDBB9A",
"c. c #E0BF9A",
"v. c #E8BD9C",
"b. c #E2BEA0",
"n. c #B7C0BC",
"m. c #C3C2BE",
"M. c #3d5c69",
"N. c #3d5c69",
"B. c #3d5c69",
"V. c #D3D6D5",
"C. c #3d5c69",
"Z. c #3d5c69",
"A. c #3d5c69",
"S. c #3d5c69",
"D. c #3d5c69",
"F. c #3d5c69",
"G. c #3d5c69",
"H. c #3d5c69",
"J. c #3d5c69",
"K. c #3d5c69",
/* pixels */
"K.K.K.K.K.K.K.K.K.K.K.K.K.K.K.K.K.K.K.K.",
"K.K.K.K.K.K.K.K.K.K.K.K.K.K.K.K.K.K.K.K.",
"K.K.K.K.K.H.H.` ` ` ` ` <.K.K.K.K.K.K.K.",
"K.K.K.K.K.k #.+.+.O.o.g d ) M.K.K.K.K.K.",
"K.K.K.G.K.&.;.-.-.-.-.-.@.X.x ( N.K.K.K.",
"K.K.H.K.$.$.@.*.*.=.%.%.@.o.h ] M.K.K.K.",
"K.K.K.* l & @ . + # # % $ y o.O.q K.J.K.",
"K.K.K.. ; ' 1.1.1.1.1.>.:.p y o.f { D.K.",
"K.J.a : z 4.l.x.z.z.z.4.4.>.= j c a K.K.",
"K.J.8 a ,.n c.x.v.v.b.m k.j.i f X.r K.K.",
"K.J.) r { 7 i.p.p.p.a.0 t.t.0 s l d K.K.",
"K.K.K.< Q R ^ ^ ^ ^ ^ U ~ ! I T b } H.K.",
"K.K.K.e.Y 8.w.0.q.q.0.0.7.E L L 3 ..K.K.",
"K.K.K.H N J W 5.6.9.W P J B 2 , [ C.K.K.",
"K.K.K., T N N M v V M Z D J E S [ B.K.K.",
"K.K.K.< ! 6 * o b 2 B R 6.7.7.E 4 ..K.K.",
"K.K.K.K.b X g w 5 A A 2 F Y 5.7.B   K.K.",
"K.K.K.K.1 . x x l - O 9 : 1 C I K G K.K.",
"K.K.K.K.* X w u s t = > > O X 6 A K.K.K.",
"K.K.K.K.K.a   ` K.K.K.K.K    { .K.K.K.K."
};
