/* XPM */
static char *a7396bb6fab140ffc59c426dee203bee4aPN8b2a9rHMeaYW[] = {
/* columns rows colors chars-per-pixel */
"20 20 148 2 ",
"   c #080809",
".  c #160B0B",
"X  c #0C0B11",
"o  c #191612",
"O  c #2A0805",
"+  c #390707",
"@  c #310808",
"#  c #3A110D",
"$  c #261A17",
"%  c #2A1B1A",
"&  c #371918",
"*  c #28281C",
"=  c #34271E",
"-  c #0A2B2A",
";  c #122723",
":  c #16312F",
">  c #073331",
",  c #083534",
"<  c #093638",
"1  c #1B3937",
"2  c #16343B",
"3  c #292E23",
"4  c #302727",
"5  c #3B2921",
"6  c #36372B",
"7  c #3A3735",
"8  c #3d5c69",
"9  c #50201C",
"0  c #442329",
"q  c #4F272A",
"w  c #4B2B2A",
"e  c #5A2327",
"r  c #572A2D",
"t  c #433428",
"y  c #452F33",
"u  c #582C34",
"i  c #563836",
"p  c #692629",
"a  c #66312D",
"s  c #74322E",
"d  c #6B3439",
"f  c #653938",
"g  c #783537",
"h  c #7F323B",
"j  c #0D4238",
"k  c #16413B",
"l  c #5C4532",
"z  c #644D3C",
"x  c #063D41",
"c  c #0B3B45",
"v  c #064243",
"b  c #0A4441",
"n  c #184348",
"m  c #144C4F",
"M  c #08524E",
"N  c #0E4551",
"B  c #175555",
"V  c #244545",
"C  c #394B4D",
"Z  c #0A5A62",
"A  c #056B64",
"S  c #0F666C",
"D  c #0E6D6F",
"F  c #126864",
"G  c #1E666C",
"H  c #12696C",
"J  c #0A6C78",
"K  c #087673",
"L  c #07707A",
"P  c #25736A",
"I  c #247774",
"U  c #257878",
"Y  c #2B7C7A",
"T  c #494846",
"R  c #564844",
"E  c #554748",
"W  c #4F5456",
"Q  c #535353",
"!  c #76594B",
"~  c #675354",
"^  c #4B5F65",
"/  c #586462",
"(  c #6E6C68",
")  c #746D6C",
"_  c #6E7A75",
"`  c #757577",
"'  c #7A7D7D",
"]  c #86363E",
"[  c #8B353B",
"{  c #933337",
"}  c #9E3D42",
"|  c #973B48",
" . c #A73D45",
".. c #9C404E",
"X. c #A24245",
"o. c #B4444C",
"O. c #AF4151",
"+. c #B64254",
"@. c #8F6157",
"#. c #89635A",
"$. c #876B60",
"%. c #80716C",
"&. c #97796A",
"*. c #977A78",
"=. c #7D807F",
"-. c #9A917E",
";. c #BB8575",
":. c #0C7C85",
">. c #117F87",
",. c #098388",
"<. c #118387",
"1. c #078997",
"2. c #098A95",
"3. c #108392",
"4. c #77878A",
"5. c #78928A",
"6. c #878582",
"7. c #9D9280",
"8. c #979B9D",
"9. c #9C9B9B",
"0. c #B4AB8E",
"q. c #B9AB8E",
"w. c #B6AC96",
"e. c #9EA2A1",
"r. c #A7ACAB",
"t. c #AEAEAF",
"y. c #B4B2B1",
"u. c #BAB8B7",
"i. c #BCBBBA",
"p. c #C49A82",
"a. c #DFB692",
"s. c #E0BF9A",
"d. c #E8BD9C",
"f. c #C3C2BE",
"g. c #C5C4C2",
"h. c #CFCDC7",
"j. c #CAC9C9",
"k. c #D3D6D5",
"l. c #D6D7D9",
"z. c #DBDDDA",
"x. c #DFE3E0",
"c. c #E4E5E4",
"v. c #E7EBEA",
"b. c #EDEEEC",
"n. c #F0F0EF",
"m. c #F4F4F4",
"M. c #F7F8F5",
"N. c #3d5c69",
/* pixels */
"N.N.N.N.N.N.N.N.N.N.N.N.N.N.N.N.N.N.N.N.",
"N.N.N.N.N.N.N.N.N.N.N.N.N.N.N.N.N.N.N.N.",
"N.N.N.N.N.N.N.N.w q q q ~ N.N.N.N.N.N.N.",
"N.N.N.N.N.R i p [ { {  ...q q N.N.N.N.N.",
"N.N.N.N.R d ] } o.o.o.o.+.O...*.N.N.N.N.",
"N.N.N.~ s [ | } X.X.X.X.X.X. .g ) N.N.N.",
"N.N.N.9 { | e + @ O O . O O # f $ N.N.N.",
"N.N.N e ] e r #.@.&.&.&.&.&.! 0 o N.N.N.",
"N.N.y h p % #.;.;.s.a.a.a.a.;.f % y N.N.",
"N.N.0 ] p t p.q.z d.d.d.s.s.l $.y 4 N.N.",
"N.N.i f u 6 -.7.7 w.q.q.q.0.3 ( y E N.N.",
"N.N.) k G H U U S U Y Y Y Y H P ; N.N.N.",
"N.N.N., A A K ,.1.1.1.1.2.3.<.F 4.N.N.N.",
"N.N.N./ > > j Z Z L >.>.:.J Z c C N.N.N.",
"N.N.N.^ M D Z N N x b j v c c G - N.N.N.",
"N.N.N < K ,.<.<.D v > k - $ 2 I > N.N.N.",
"N.N._ v >.:.S B < m n 2 5 a X 1 5.N.N.N.",
"N.N.V Z S N : * 6 o & d h g . 3 N.N.N.N.",
"N.N n m 2 X o 5 = % w r e 0 X $ N.N.N.N.",
"N.N.N.N.N.(   98N.N.N.N.N     98N.N.N.N."
};
