/* XPM */
static char *_1df386e8a3b45a6fa89d493b14e1b4duWs5felbbJUMNn6E[] = {
/* columns rows colors chars-per-pixel */
"20 20 40 1 ",
"  c #161B22",
". c #141C23",
"X c #141C24",
"o c #171C24",
"O c #151E26",
"+ c #161E26",
"@ c #181C23",
"# c #1B1E25",
"$ c #172128",
"% c #182229",
"& c #19232D",
"* c #1B252F",
"= c #1B2530",
"- c #1B2732",
"; c #1C2834",
": c #1E2A36",
"> c #1E2B38",
", c #1F2C38",
"< c #1F2C3A",
"1 c #202D3A",
"2 c #212F3D",
"3 c #22313F",
"4 c #23313F",
"5 c #24373F",
"6 c #233240",
"7 c #243441",
"8 c #253542",
"9 c #263A41",
"0 c #293C47",
"q c #293E48",
"w c #294046",
"e c #2A4149",
"r c #2B4248",
"t c #2B424B",
"y c #2D4449",
"u c #314B52",
"i c #324D53",
"p c #324E53",
"a c #334F54",
"s c #345156",
/* pixels */
"@..........O.@..O...",
"#O$%$%%%%%%$%%%%$#..",
"#,eiisisiiiiaaaau2O.",
"O130ssssw88ssssu22O.",
"#>338888723758871%..",
"O&>23342232324331O..",
"@.-32424>::223231O..",
"@o-23242-o#142321O..",
"O.-22224&.O111221O..",
"..O%##O%OOOOO%#OOO..",
"#-9yeerr5:1wyyrw::O.",
"@-8tttrq833ettrq1-O.",
"@.-2222622726622<OO.",
"@.-2726221226262,O..",
"@.;22222=O#227262O..",
"#O-26262*oO22222>X..",
"@.#$&$&%OXX$&&$&$o..",
"o...XXoo........Xo..",
"......XX........X...",
"@..................."
};
